<svg width="1024" height="753" viewBox="0 0 1024 753" fill="none" xmlns="http://www.w3.org/2000/svg">
<g clip-path="url(#clip0_175_1867)">
<rect width="1024" height="753" fill="#121214"/>
<g opacity="0.2" filter="url(#filter0_f_175_1867)">
<ellipse cx="522.5" cy="-6.13934" rx="680.5" ry="309.861" fill="#35875D"/>
</g>
<path d="M35.8841 202.795C37.4017 202.795 38.5506 203.353 39.3306 204.47C40.1249 205.574 40.522 207.18 40.522 209.29C40.522 211.4 40.1249 213.013 39.3306 214.129C38.5506 215.245 37.4017 215.803 35.8841 215.803C34.3807 215.803 33.2318 215.245 32.4375 214.129C31.6433 213.013 31.2461 211.4 31.2461 209.29C31.2461 207.193 31.6433 205.586 32.4375 204.47C33.2318 203.353 34.3807 202.795 35.8841 202.795ZM32.7567 209.29C32.7567 210.786 32.9127 211.958 33.2247 212.804L37.9478 204.654C37.4514 204.077 36.7635 203.789 35.8841 203.789C34.9054 203.789 34.1395 204.243 33.5864 205.15C33.0332 206.046 32.7567 207.426 32.7567 209.29ZM35.8841 214.791C36.8769 214.791 37.6499 214.344 38.2031 213.448C38.7562 212.541 39.0328 211.154 39.0328 209.29C39.0328 207.708 38.8555 206.481 38.5009 205.61L33.7779 213.835C34.2885 214.472 34.9905 214.791 35.8841 214.791Z" fill="url(#paint0_linear_175_1867)" fill-opacity="0.6"/>
<path d="M37.1606 235.671H40.288V236.646H32.1822V235.671H35.799V225.331L32.3524 227.116L31.7567 226.288L36.0117 224.006H37.1606V235.671Z" fill="url(#paint1_linear_175_1867)" fill-opacity="0.6"/>
<path d="M35.8841 244.85C37.4017 244.85 38.5506 245.408 39.3306 246.524C40.1249 247.628 40.522 249.235 40.522 251.344C40.522 253.454 40.1249 255.067 39.3306 256.183C38.5506 257.3 37.4017 257.858 35.8841 257.858C34.3807 257.858 33.2318 257.3 32.4375 256.183C31.6433 255.067 31.2461 253.454 31.2461 251.344C31.2461 249.247 31.6433 247.64 32.4375 246.524C33.2318 245.408 34.3807 244.85 35.8841 244.85ZM32.7567 251.344C32.7567 252.841 32.9127 254.012 33.2247 254.859L37.9478 246.708C37.4514 246.131 36.7635 245.843 35.8841 245.843C34.9054 245.843 34.1395 246.297 33.5864 247.205C33.0332 248.1 32.7567 249.48 32.7567 251.344ZM35.8841 256.846C36.8769 256.846 37.6499 256.398 38.2031 255.503C38.7562 254.595 39.0328 253.209 39.0328 251.344C39.0328 249.762 38.8555 248.536 38.5009 247.665L33.7779 255.889C34.2885 256.527 34.9905 256.846 35.8841 256.846Z" fill="url(#paint2_linear_175_1867)" fill-opacity="0.6"/>
<path d="M37.1606 277.726H40.288V278.701H32.1822V277.726H35.799V267.386L32.3524 269.17L31.7567 268.342L36.0117 266.061H37.1606V277.726Z" fill="url(#paint3_linear_175_1867)" fill-opacity="0.6"/>
<path d="M37.1606 298.753H40.288V299.728H32.1822V298.753H35.799V288.413L32.3524 290.197L31.7567 289.37L36.0117 287.088H37.1606V298.753Z" fill="url(#paint4_linear_175_1867)" fill-opacity="0.6"/>
<path d="M35.8841 307.931C37.4017 307.931 38.5506 308.489 39.3306 309.606C40.1249 310.709 40.522 312.316 40.522 314.426C40.522 316.536 40.1249 318.149 39.3306 319.265C38.5506 320.381 37.4017 320.939 35.8841 320.939C34.3807 320.939 33.2318 320.381 32.4375 319.265C31.6433 318.149 31.2461 316.536 31.2461 314.426C31.2461 312.329 31.6433 310.722 32.4375 309.606C33.2318 308.489 34.3807 307.931 35.8841 307.931ZM32.7567 314.426C32.7567 315.922 32.9127 317.094 33.2247 317.94L37.9478 309.79C37.4514 309.213 36.7635 308.925 35.8841 308.925C34.9054 308.925 34.1395 309.379 33.5864 310.286C33.0332 311.182 32.7567 312.562 32.7567 314.426ZM35.8841 319.927C36.8769 319.927 37.6499 319.48 38.2031 318.584C38.7562 317.677 39.0328 316.29 39.0328 314.426C39.0328 312.844 38.8555 311.617 38.5009 310.746L33.7779 318.971C34.2885 319.608 34.9905 319.927 35.8841 319.927Z" fill="url(#paint5_linear_175_1867)" fill-opacity="0.6"/>
<path d="M37.1606 340.807H40.288V341.782H32.1822V340.807H35.799V330.467L32.3524 332.252L31.7567 331.424L36.0117 329.142H37.1606V340.807Z" fill="url(#paint6_linear_175_1867)" fill-opacity="0.6"/>
<path d="M35.8841 349.986C37.4017 349.986 38.5506 350.544 39.3306 351.66C40.1249 352.764 40.522 354.371 40.522 356.48C40.522 358.59 40.1249 360.203 39.3306 361.319C38.5506 362.436 37.4017 362.994 35.8841 362.994C34.3807 362.994 33.2318 362.436 32.4375 361.319C31.6433 360.203 31.2461 358.59 31.2461 356.48C31.2461 354.383 31.6433 352.776 32.4375 351.66C33.2318 350.544 34.3807 349.986 35.8841 349.986ZM32.7567 356.48C32.7567 357.977 32.9127 359.148 33.2247 359.995L37.9478 351.844C37.4514 351.267 36.7635 350.979 35.8841 350.979C34.9054 350.979 34.1395 351.433 33.5864 352.341C33.0332 353.236 32.7567 354.616 32.7567 356.48ZM35.8841 361.982C36.8769 361.982 37.6499 361.534 38.2031 360.639C38.7562 359.731 39.0328 358.345 39.0328 356.48C39.0328 354.898 38.8555 353.672 38.5009 352.801L33.7779 361.025C34.2885 361.663 34.9905 361.982 35.8841 361.982Z" fill="url(#paint7_linear_175_1867)" fill-opacity="0.6"/>
<path d="M35.8841 371.013C37.4017 371.013 38.5506 371.571 39.3306 372.687C40.1249 373.791 40.522 375.398 40.522 377.508C40.522 379.617 40.1249 381.23 39.3306 382.346C38.5506 383.463 37.4017 384.021 35.8841 384.021C34.3807 384.021 33.2318 383.463 32.4375 382.346C31.6433 381.23 31.2461 379.617 31.2461 377.508C31.2461 375.41 31.6433 373.803 32.4375 372.687C33.2318 371.571 34.3807 371.013 35.8841 371.013ZM32.7567 377.508C32.7567 379.004 32.9127 380.175 33.2247 381.022L37.9478 372.871C37.4514 372.295 36.7635 372.006 35.8841 372.006C34.9054 372.006 34.1395 372.46 33.5864 373.368C33.0332 374.263 32.7567 375.643 32.7567 377.508ZM35.8841 383.009C36.8769 383.009 37.6499 382.561 38.2031 381.666C38.7562 380.758 39.0328 379.372 39.0328 377.508C39.0328 375.925 38.8555 374.699 38.5009 373.828L33.7779 382.052C34.2885 382.69 34.9905 383.009 35.8841 383.009Z" fill="url(#paint8_linear_175_1867)" fill-opacity="0.6"/>
<path d="M37.1606 403.889H40.288V404.864H32.1822V403.889H35.799V393.549L32.3524 395.333L31.7567 394.505L36.0117 392.224H37.1606V403.889Z" fill="url(#paint9_linear_175_1867)" fill-opacity="0.6"/>
<path d="M35.8841 413.067C37.4017 413.067 38.5506 413.625 39.3306 414.742C40.1249 415.845 40.522 417.452 40.522 419.562C40.522 421.672 40.1249 423.285 39.3306 424.401C38.5506 425.517 37.4017 426.075 35.8841 426.075C34.3807 426.075 33.2318 425.517 32.4375 424.401C31.6433 423.285 31.2461 421.672 31.2461 419.562C31.2461 417.465 31.6433 415.858 32.4375 414.742C33.2318 413.625 34.3807 413.067 35.8841 413.067ZM32.7567 419.562C32.7567 421.058 32.9127 422.23 33.2247 423.076L37.9478 414.926C37.4514 414.349 36.7635 414.061 35.8841 414.061C34.9054 414.061 34.1395 414.515 33.5864 415.422C33.0332 416.318 32.7567 417.698 32.7567 419.562ZM35.8841 425.063C36.8769 425.063 37.6499 424.616 38.2031 423.72C38.7562 422.812 39.0328 421.426 39.0328 419.562C39.0328 417.98 38.8555 416.753 38.5009 415.882L33.7779 424.107C34.2885 424.744 34.9905 425.063 35.8841 425.063Z" fill="url(#paint10_linear_175_1867)" fill-opacity="0.6"/>
<path d="M37.1606 445.943H40.288V446.918H32.1822V445.943H35.799V435.603L32.3524 437.388L31.7567 436.56L36.0117 434.278H37.1606V445.943Z" fill="url(#paint11_linear_175_1867)" fill-opacity="0.6"/>
<path d="M37.1606 466.97H40.288V467.946H32.1822V466.97H35.799V456.63L32.3524 458.415L31.7567 457.587L36.0117 455.306H37.1606V466.97Z" fill="url(#paint12_linear_175_1867)" fill-opacity="0.6"/>
<path d="M75.3949 244.85C76.9125 244.85 78.0614 245.408 78.8415 246.524C79.6357 247.628 80.0329 249.235 80.0329 251.344C80.0329 253.454 79.6357 255.067 78.8415 256.183C78.0614 257.3 76.9125 257.858 75.3949 257.858C73.8915 257.858 72.7426 257.3 71.9483 256.183C71.1541 255.067 70.7569 253.454 70.7569 251.344C70.7569 249.247 71.1541 247.64 71.9483 246.524C72.7426 245.408 73.8915 244.85 75.3949 244.85ZM72.2675 251.344C72.2675 252.841 72.4235 254.012 72.7355 254.859L77.4586 246.708C76.9622 246.131 76.2743 245.843 75.3949 245.843C74.4162 245.843 73.6503 246.297 73.0972 247.205C72.544 248.1 72.2675 249.48 72.2675 251.344ZM75.3949 256.846C76.3877 256.846 77.1607 256.398 77.7139 255.503C78.267 254.595 78.5436 253.209 78.5436 251.344C78.5436 249.762 78.3663 248.536 78.0117 247.665L73.2887 255.889C73.7993 256.527 74.5013 256.846 75.3949 256.846Z" fill="url(#paint13_linear_175_1867)" fill-opacity="0.6"/>
<path d="M76.6714 277.726H79.7988V278.701H71.693V277.726H75.3098V267.386L71.8632 269.17L71.2675 268.342L75.5225 266.061H76.6714V277.726Z" fill="url(#paint14_linear_175_1867)" fill-opacity="0.6"/>
<path d="M75.3949 286.904C76.9125 286.904 78.0614 287.462 78.8415 288.578C79.6357 289.682 80.0329 291.289 80.0329 293.399C80.0329 295.509 79.6357 297.122 78.8415 298.238C78.0614 299.354 76.9125 299.912 75.3949 299.912C73.8915 299.912 72.7426 299.354 71.9483 298.238C71.1541 297.122 70.7569 295.509 70.7569 293.399C70.7569 291.301 71.1541 289.695 71.9483 288.578C72.7426 287.462 73.8915 286.904 75.3949 286.904ZM72.2675 293.399C72.2675 294.895 72.4235 296.067 72.7355 296.913L77.4586 288.762C76.9622 288.186 76.2743 287.898 75.3949 287.898C74.4162 287.898 73.6503 288.351 73.0972 289.259C72.544 290.155 72.2675 291.534 72.2675 293.399ZM75.3949 298.9C76.3877 298.9 77.1607 298.452 77.7139 297.557C78.267 296.649 78.5436 295.263 78.5436 293.399C78.5436 291.817 78.3663 290.59 78.0117 289.719L73.2887 297.943C73.7993 298.581 74.5013 298.9 75.3949 298.9Z" fill="url(#paint15_linear_175_1867)" fill-opacity="0.6"/>
<path d="M75.3949 307.931C76.9125 307.931 78.0614 308.489 78.8415 309.606C79.6357 310.709 80.0329 312.316 80.0329 314.426C80.0329 316.536 79.6357 318.149 78.8415 319.265C78.0614 320.381 76.9125 320.939 75.3949 320.939C73.8915 320.939 72.7426 320.381 71.9483 319.265C71.1541 318.149 70.7569 316.536 70.7569 314.426C70.7569 312.329 71.1541 310.722 71.9483 309.606C72.7426 308.489 73.8915 307.931 75.3949 307.931ZM72.2675 314.426C72.2675 315.922 72.4235 317.094 72.7355 317.94L77.4586 309.79C76.9622 309.213 76.2743 308.925 75.3949 308.925C74.4162 308.925 73.6503 309.379 73.0972 310.286C72.544 311.182 72.2675 312.562 72.2675 314.426ZM75.3949 319.927C76.3877 319.927 77.1607 319.48 77.7139 318.584C78.267 317.677 78.5436 316.29 78.5436 314.426C78.5436 312.844 78.3663 311.617 78.0117 310.746L73.2887 318.971C73.7993 319.608 74.5013 319.927 75.3949 319.927Z" fill="url(#paint16_linear_175_1867)" fill-opacity="0.6"/>
<path d="M76.6714 340.807H79.7988V341.782H71.693V340.807H75.3098V330.467L71.8632 332.252L71.2675 331.424L75.5225 329.142H76.6714V340.807Z" fill="url(#paint17_linear_175_1867)" fill-opacity="0.6"/>
<path d="M75.3949 349.986C76.9125 349.986 78.0614 350.544 78.8415 351.66C79.6357 352.764 80.0329 354.371 80.0329 356.48C80.0329 358.59 79.6357 360.203 78.8415 361.319C78.0614 362.436 76.9125 362.994 75.3949 362.994C73.8915 362.994 72.7426 362.436 71.9483 361.319C71.1541 360.203 70.7569 358.59 70.7569 356.48C70.7569 354.383 71.1541 352.776 71.9483 351.66C72.7426 350.544 73.8915 349.986 75.3949 349.986ZM72.2675 356.48C72.2675 357.977 72.4235 359.148 72.7355 359.995L77.4586 351.844C76.9622 351.267 76.2743 350.979 75.3949 350.979C74.4162 350.979 73.6503 351.433 73.0972 352.341C72.544 353.236 72.2675 354.616 72.2675 356.48ZM75.3949 361.982C76.3877 361.982 77.1607 361.534 77.7139 360.639C78.267 359.731 78.5436 358.345 78.5436 356.48C78.5436 354.898 78.3663 353.672 78.0117 352.801L73.2887 361.025C73.7993 361.663 74.5013 361.982 75.3949 361.982Z" fill="url(#paint18_linear_175_1867)" fill-opacity="0.6"/>
<path d="M76.6714 382.862H79.7988V383.837H71.693V382.862H75.3098V372.522L71.8632 374.306L71.2675 373.478L75.5225 371.197H76.6714V382.862Z" fill="url(#paint19_linear_175_1867)" fill-opacity="0.6"/>
<path d="M75.3949 392.04C76.9125 392.04 78.0614 392.598 78.8415 393.714C79.6357 394.818 80.0329 396.425 80.0329 398.535C80.0329 400.645 79.6357 402.258 78.8415 403.374C78.0614 404.49 76.9125 405.048 75.3949 405.048C73.8915 405.048 72.7426 404.49 71.9483 403.374C71.1541 402.258 70.7569 400.645 70.7569 398.535C70.7569 396.437 71.1541 394.831 71.9483 393.714C72.7426 392.598 73.8915 392.04 75.3949 392.04ZM72.2675 398.535C72.2675 400.031 72.4235 401.203 72.7355 402.049L77.4586 393.898C76.9622 393.322 76.2743 393.034 75.3949 393.034C74.4162 393.034 73.6503 393.487 73.0972 394.395C72.544 395.291 72.2675 396.67 72.2675 398.535ZM75.3949 404.036C76.3877 404.036 77.1607 403.588 77.7139 402.693C78.267 401.785 78.5436 400.399 78.5436 398.535C78.5436 396.953 78.3663 395.726 78.0117 394.855L73.2887 403.079C73.7993 403.717 74.5013 404.036 75.3949 404.036Z" fill="url(#paint20_linear_175_1867)" fill-opacity="0.6"/>
<path d="M75.3949 413.067C76.9125 413.067 78.0614 413.625 78.8415 414.742C79.6357 415.845 80.0329 417.452 80.0329 419.562C80.0329 421.672 79.6357 423.285 78.8415 424.401C78.0614 425.517 76.9125 426.075 75.3949 426.075C73.8915 426.075 72.7426 425.517 71.9483 424.401C71.1541 423.285 70.7569 421.672 70.7569 419.562C70.7569 417.465 71.1541 415.858 71.9483 414.742C72.7426 413.625 73.8915 413.067 75.3949 413.067ZM72.2675 419.562C72.2675 421.058 72.4235 422.23 72.7355 423.076L77.4586 414.926C76.9622 414.349 76.2743 414.061 75.3949 414.061C74.4162 414.061 73.6503 414.515 73.0972 415.422C72.544 416.318 72.2675 417.698 72.2675 419.562ZM75.3949 425.063C76.3877 425.063 77.1607 424.616 77.7139 423.72C78.267 422.812 78.5436 421.426 78.5436 419.562C78.5436 417.98 78.3663 416.753 78.0117 415.882L73.2887 424.107C73.7993 424.744 74.5013 425.063 75.3949 425.063Z" fill="url(#paint21_linear_175_1867)" fill-opacity="0.6"/>
<path d="M76.6714 445.943H79.7988V446.918H71.693V445.943H75.3098V435.603L71.8632 437.388L71.2675 436.56L75.5225 434.278H76.6714V445.943Z" fill="url(#paint22_linear_175_1867)" fill-opacity="0.6"/>
<path d="M75.3949 455.122C76.9125 455.122 78.0614 455.68 78.8415 456.796C79.6357 457.9 80.0329 459.507 80.0329 461.616C80.0329 463.726 79.6357 465.339 78.8415 466.455C78.0614 467.571 76.9125 468.13 75.3949 468.13C73.8915 468.13 72.7426 467.571 71.9483 466.455C71.1541 465.339 70.7569 463.726 70.7569 461.616C70.7569 459.519 71.1541 457.912 71.9483 456.796C72.7426 455.68 73.8915 455.122 75.3949 455.122ZM72.2675 461.616C72.2675 463.113 72.4235 464.284 72.7355 465.131L77.4586 456.98C76.9622 456.403 76.2743 456.115 75.3949 456.115C74.4162 456.115 73.6503 456.569 73.0972 457.477C72.544 458.372 72.2675 459.752 72.2675 461.616ZM75.3949 467.118C76.3877 467.118 77.1607 466.67 77.7139 465.775C78.267 464.867 78.5436 463.481 78.5436 461.616C78.5436 460.034 78.3663 458.808 78.0117 457.937L73.2887 466.161C73.7993 466.799 74.5013 467.118 75.3949 467.118Z" fill="url(#paint23_linear_175_1867)" fill-opacity="0.6"/>
<path d="M76.6714 487.998H79.7988V488.973H71.693V487.998H75.3098V477.658L71.8632 479.442L71.2675 478.614L75.5225 476.333H76.6714V487.998Z" fill="url(#paint24_linear_175_1867)" fill-opacity="0.6"/>
<path d="M76.6714 509.025H79.7988V510H71.693V509.025H75.3098V498.685L71.8632 500.469L71.2675 499.641L75.5225 497.36H76.6714V509.025Z" fill="url(#paint25_linear_175_1867)" fill-opacity="0.6"/>
<path d="M16.1287 265.877C17.6463 265.877 18.7952 266.435 19.5752 267.551C20.3695 268.655 20.7666 270.262 20.7666 272.372C20.7666 274.481 20.3695 276.094 19.5752 277.211C18.7952 278.327 17.6463 278.885 16.1287 278.885C14.6252 278.885 13.4764 278.327 12.6821 277.211C11.8879 276.094 11.4907 274.481 11.4907 272.372C11.4907 270.274 11.8879 268.667 12.6821 267.551C13.4764 266.435 14.6252 265.877 16.1287 265.877ZM13.0013 272.372C13.0013 273.868 13.1573 275.039 13.4693 275.886L18.1924 267.735C17.6959 267.159 17.0081 266.87 16.1287 266.87C15.15 266.87 14.3841 267.324 13.831 268.232C13.2778 269.127 13.0013 270.507 13.0013 272.372ZM16.1287 277.873C17.1215 277.873 17.8945 277.425 18.4477 276.53C19.0008 275.622 19.2774 274.236 19.2774 272.372C19.2774 270.789 19.1001 269.563 18.7455 268.692L14.0225 276.916C14.5331 277.554 15.2351 277.873 16.1287 277.873Z" fill="url(#paint26_linear_175_1867)" fill-opacity="0.6"/>
<path d="M16.1287 286.904C17.6463 286.904 18.7952 287.462 19.5752 288.578C20.3695 289.682 20.7666 291.289 20.7666 293.399C20.7666 295.509 20.3695 297.122 19.5752 298.238C18.7952 299.354 17.6463 299.912 16.1287 299.912C14.6252 299.912 13.4764 299.354 12.6821 298.238C11.8879 297.122 11.4907 295.509 11.4907 293.399C11.4907 291.301 11.8879 289.695 12.6821 288.578C13.4764 287.462 14.6252 286.904 16.1287 286.904ZM13.0013 293.399C13.0013 294.895 13.1573 296.067 13.4693 296.913L18.1924 288.762C17.6959 288.186 17.0081 287.898 16.1287 287.898C15.15 287.898 14.3841 288.351 13.831 289.259C13.2778 290.155 13.0013 291.534 13.0013 293.399ZM16.1287 298.9C17.1215 298.9 17.8945 298.452 18.4477 297.557C19.0008 296.649 19.2774 295.263 19.2774 293.399C19.2774 291.817 19.1001 290.59 18.7455 289.719L14.0225 297.943C14.5331 298.581 15.2351 298.9 16.1287 298.9Z" fill="url(#paint27_linear_175_1867)" fill-opacity="0.6"/>
<path d="M17.4052 319.78H20.5326V320.755H12.4268V319.78H16.0436V309.44L12.597 311.225L12.0013 310.397L16.2563 308.115H17.4052V319.78Z" fill="url(#paint28_linear_175_1867)" fill-opacity="0.6"/>
<path d="M16.1287 328.958C17.6463 328.958 18.7952 329.517 19.5752 330.633C20.3695 331.737 20.7666 333.344 20.7666 335.453C20.7666 337.563 20.3695 339.176 19.5752 340.292C18.7952 341.408 17.6463 341.966 16.1287 341.966C14.6252 341.966 13.4764 341.408 12.6821 340.292C11.8879 339.176 11.4907 337.563 11.4907 335.453C11.4907 333.356 11.8879 331.749 12.6821 330.633C13.4764 329.517 14.6252 328.958 16.1287 328.958ZM13.0013 335.453C13.0013 336.95 13.1573 338.121 13.4693 338.967L18.1924 330.817C17.6959 330.24 17.0081 329.952 16.1287 329.952C15.15 329.952 14.3841 330.406 13.831 331.314C13.2778 332.209 13.0013 333.589 13.0013 335.453ZM16.1287 340.954C17.1215 340.954 17.8945 340.507 18.4477 339.611C19.0008 338.704 19.2774 337.318 19.2774 335.453C19.2774 333.871 19.1001 332.644 18.7455 331.773L14.0225 339.998C14.5331 340.636 15.2351 340.954 16.1287 340.954Z" fill="url(#paint29_linear_175_1867)" fill-opacity="0.6"/>
<path d="M17.4052 361.834H20.5326V362.81H12.4268V361.834H16.0436V351.494L12.597 353.279L12.0013 352.451L16.2563 350.17H17.4052V361.834Z" fill="url(#paint30_linear_175_1867)" fill-opacity="0.6"/>
<path d="M17.4052 382.862H20.5326V383.837H12.4268V382.862H16.0436V372.522L12.597 374.306L12.0013 373.478L16.2563 371.197H17.4052V382.862Z" fill="url(#paint31_linear_175_1867)" fill-opacity="0.6"/>
<path d="M56.916 235.671H60.0434V236.646H51.9376V235.671H55.5544V225.331L52.1078 227.116L51.5121 226.288L55.7671 224.006H56.916V235.671Z" fill="url(#paint32_linear_175_1867)" fill-opacity="0.6"/>
<path d="M55.6395 244.85C57.1571 244.85 58.306 245.408 59.0861 246.524C59.8803 247.628 60.2775 249.235 60.2775 251.344C60.2775 253.454 59.8803 255.067 59.0861 256.183C58.306 257.3 57.1571 257.858 55.6395 257.858C54.1361 257.858 52.9872 257.3 52.1929 256.183C51.3987 255.067 51.0015 253.454 51.0015 251.344C51.0015 249.247 51.3987 247.64 52.1929 246.524C52.9872 245.408 54.1361 244.85 55.6395 244.85ZM52.5121 251.344C52.5121 252.841 52.6681 254.012 52.9801 254.859L57.7032 246.708C57.2068 246.131 56.5189 245.843 55.6395 245.843C54.6608 245.843 53.8949 246.297 53.3418 247.205C52.7886 248.1 52.5121 249.48 52.5121 251.344ZM55.6395 256.846C56.6323 256.846 57.4053 256.398 57.9585 255.503C58.5116 254.595 58.7882 253.209 58.7882 251.344C58.7882 249.762 58.6109 248.536 58.2563 247.665L53.5333 255.889C54.0439 256.527 54.7459 256.846 55.6395 256.846Z" fill="url(#paint33_linear_175_1867)" fill-opacity="0.6"/>
<path d="M56.916 277.726H60.0434V278.701H51.9376V277.726H55.5544V267.386L52.1078 269.17L51.5121 268.342L55.7671 266.061H56.916V277.726Z" fill="url(#paint34_linear_175_1867)" fill-opacity="0.6"/>
<path d="M56.916 298.753H60.0434V299.728H51.9376V298.753H55.5544V288.413L52.1078 290.197L51.5121 289.37L55.7671 287.088H56.916V298.753Z" fill="url(#paint35_linear_175_1867)" fill-opacity="0.6"/>
<path d="M55.6395 307.931C57.1571 307.931 58.306 308.489 59.0861 309.606C59.8803 310.709 60.2775 312.316 60.2775 314.426C60.2775 316.536 59.8803 318.149 59.0861 319.265C58.306 320.381 57.1571 320.939 55.6395 320.939C54.1361 320.939 52.9872 320.381 52.1929 319.265C51.3987 318.149 51.0015 316.536 51.0015 314.426C51.0015 312.329 51.3987 310.722 52.1929 309.606C52.9872 308.489 54.1361 307.931 55.6395 307.931ZM52.5121 314.426C52.5121 315.922 52.6681 317.094 52.9801 317.94L57.7032 309.79C57.2068 309.213 56.5189 308.925 55.6395 308.925C54.6608 308.925 53.8949 309.379 53.3418 310.286C52.7886 311.182 52.5121 312.562 52.5121 314.426ZM55.6395 319.927C56.6323 319.927 57.4053 319.48 57.9585 318.584C58.5116 317.677 58.7882 316.29 58.7882 314.426C58.7882 312.844 58.6109 311.617 58.2563 310.746L53.5333 318.971C54.0439 319.608 54.7459 319.927 55.6395 319.927Z" fill="url(#paint36_linear_175_1867)" fill-opacity="0.6"/>
<path d="M56.916 340.807H60.0434V341.782H51.9376V340.807H55.5544V330.467L52.1078 332.252L51.5121 331.424L55.7671 329.142H56.916V340.807Z" fill="url(#paint37_linear_175_1867)" fill-opacity="0.6"/>
<path d="M56.916 361.834H60.0434V362.81H51.9376V361.834H55.5544V351.494L52.1078 353.279L51.5121 352.451L55.7671 350.17H56.916V361.834Z" fill="url(#paint38_linear_175_1867)" fill-opacity="0.6"/>
<path d="M55.6395 371.013C57.1571 371.013 58.306 371.571 59.0861 372.687C59.8803 373.791 60.2775 375.398 60.2775 377.508C60.2775 379.617 59.8803 381.23 59.0861 382.346C58.306 383.463 57.1571 384.021 55.6395 384.021C54.1361 384.021 52.9872 383.463 52.1929 382.346C51.3987 381.23 51.0015 379.617 51.0015 377.508C51.0015 375.41 51.3987 373.803 52.1929 372.687C52.9872 371.571 54.1361 371.013 55.6395 371.013ZM52.5121 377.508C52.5121 379.004 52.6681 380.175 52.9801 381.022L57.7032 372.871C57.2068 372.295 56.5189 372.006 55.6395 372.006C54.6608 372.006 53.8949 372.46 53.3418 373.368C52.7886 374.263 52.5121 375.643 52.5121 377.508ZM55.6395 383.009C56.6323 383.009 57.4053 382.561 57.9585 381.666C58.5116 380.758 58.7882 379.372 58.7882 377.508C58.7882 375.925 58.6109 374.699 58.2563 373.828L53.5333 382.052C54.0439 382.69 54.7459 383.009 55.6395 383.009Z" fill="url(#paint39_linear_175_1867)" fill-opacity="0.6"/>
<path d="M56.916 403.889H60.0434V404.864H51.9376V403.889H55.5544V393.549L52.1078 395.333L51.5121 394.505L55.7671 392.224H56.916V403.889Z" fill="url(#paint40_linear_175_1867)" fill-opacity="0.6"/>
<path d="M55.6395 413.067C57.1571 413.067 58.306 413.625 59.0861 414.742C59.8803 415.845 60.2775 417.452 60.2775 419.562C60.2775 421.672 59.8803 423.285 59.0861 424.401C58.306 425.517 57.1571 426.075 55.6395 426.075C54.1361 426.075 52.9872 425.517 52.1929 424.401C51.3987 423.285 51.0015 421.672 51.0015 419.562C51.0015 417.465 51.3987 415.858 52.1929 414.742C52.9872 413.625 54.1361 413.067 55.6395 413.067ZM52.5121 419.562C52.5121 421.058 52.6681 422.23 52.9801 423.076L57.7032 414.926C57.2068 414.349 56.5189 414.061 55.6395 414.061C54.6608 414.061 53.8949 414.515 53.3418 415.422C52.7886 416.318 52.5121 417.698 52.5121 419.562ZM55.6395 425.063C56.6323 425.063 57.4053 424.616 57.9585 423.72C58.5116 422.812 58.7882 421.426 58.7882 419.562C58.7882 417.98 58.6109 416.753 58.2563 415.882L53.5333 424.107C54.0439 424.744 54.7459 425.063 55.6395 425.063Z" fill="url(#paint41_linear_175_1867)" fill-opacity="0.6"/>
<path d="M95.1503 223.822C96.6679 223.822 97.8168 224.381 98.5969 225.497C99.3911 226.601 99.7883 228.208 99.7883 230.317C99.7883 232.427 99.3911 234.04 98.5969 235.156C97.8168 236.272 96.6679 236.83 95.1503 236.83C93.6469 236.83 92.498 236.272 91.7037 235.156C90.9095 234.04 90.5123 232.427 90.5123 230.317C90.5123 228.22 90.9095 226.613 91.7037 225.497C92.498 224.381 93.6469 223.822 95.1503 223.822ZM92.0229 230.317C92.0229 231.814 92.1789 232.985 92.4909 233.831L97.214 225.681C96.7176 225.104 96.0297 224.816 95.1503 224.816C94.1717 224.816 93.4057 225.27 92.8526 226.178C92.2994 227.073 92.0229 228.453 92.0229 230.317ZM95.1503 235.819C96.1431 235.819 96.9161 235.371 97.4693 234.475C98.0224 233.568 98.299 232.182 98.299 230.317C98.299 228.735 98.1217 227.508 97.7671 226.637L93.0441 234.862C93.5547 235.5 94.2568 235.819 95.1503 235.819Z" fill="url(#paint42_linear_175_1867)" fill-opacity="0.6"/>
<path d="M96.4268 256.699H99.5542V257.674H91.4484V256.699H95.0652V246.358L91.6186 248.143L91.0229 247.315L95.278 245.034H96.4268V256.699Z" fill="url(#paint43_linear_175_1867)" fill-opacity="0.6"/>
<path d="M96.4268 277.726H99.5542V278.701H91.4484V277.726H95.0652V267.386L91.6186 269.17L91.0229 268.342L95.278 266.061H96.4268V277.726Z" fill="url(#paint44_linear_175_1867)" fill-opacity="0.6"/>
<path d="M95.1503 286.904C96.6679 286.904 97.8168 287.462 98.5969 288.578C99.3911 289.682 99.7883 291.289 99.7883 293.399C99.7883 295.509 99.3911 297.122 98.5969 298.238C97.8168 299.354 96.6679 299.912 95.1503 299.912C93.6469 299.912 92.498 299.354 91.7037 298.238C90.9095 297.122 90.5123 295.509 90.5123 293.399C90.5123 291.301 90.9095 289.695 91.7037 288.578C92.498 287.462 93.6469 286.904 95.1503 286.904ZM92.0229 293.399C92.0229 294.895 92.1789 296.067 92.4909 296.913L97.214 288.762C96.7176 288.186 96.0297 287.898 95.1503 287.898C94.1717 287.898 93.4057 288.351 92.8526 289.259C92.2994 290.155 92.0229 291.534 92.0229 293.399ZM95.1503 298.9C96.1431 298.9 96.9161 298.452 97.4693 297.557C98.0224 296.649 98.299 295.263 98.299 293.399C98.299 291.817 98.1217 290.59 97.7671 289.719L93.0441 297.943C93.5547 298.581 94.2568 298.9 95.1503 298.9Z" fill="url(#paint45_linear_175_1867)" fill-opacity="0.6"/>
<path d="M95.1503 307.931C96.6679 307.931 97.8168 308.489 98.5969 309.606C99.3911 310.709 99.7883 312.316 99.7883 314.426C99.7883 316.536 99.3911 318.149 98.5969 319.265C97.8168 320.381 96.6679 320.939 95.1503 320.939C93.6469 320.939 92.498 320.381 91.7037 319.265C90.9095 318.149 90.5123 316.536 90.5123 314.426C90.5123 312.329 90.9095 310.722 91.7037 309.606C92.498 308.489 93.6469 307.931 95.1503 307.931ZM92.0229 314.426C92.0229 315.922 92.1789 317.094 92.4909 317.94L97.214 309.79C96.7176 309.213 96.0297 308.925 95.1503 308.925C94.1717 308.925 93.4057 309.379 92.8526 310.286C92.2994 311.182 92.0229 312.562 92.0229 314.426ZM95.1503 319.927C96.1431 319.927 96.9161 319.48 97.4693 318.584C98.0224 317.677 98.299 316.29 98.299 314.426C98.299 312.844 98.1217 311.617 97.7671 310.746L93.0441 318.971C93.5547 319.608 94.2568 319.927 95.1503 319.927Z" fill="url(#paint46_linear_175_1867)" fill-opacity="0.6"/>
<g opacity="0.6">
<path d="M936.006 -62.7996C937.454 -62.7996 938.55 -62.264 939.294 -61.1928C940.052 -60.1334 940.431 -58.5914 940.431 -56.5668C940.431 -54.5422 940.052 -52.9943 939.294 -51.9232C938.55 -50.852 937.454 -50.3164 936.006 -50.3164C934.572 -50.3164 933.476 -50.852 932.718 -51.9232C931.96 -52.9943 931.582 -54.5422 931.582 -56.5668C931.582 -58.5797 931.96 -60.1217 932.718 -61.1928C933.476 -62.264 934.572 -62.7996 936.006 -62.7996ZM933.023 -56.5668C933.023 -55.1308 933.172 -54.0066 933.469 -53.1944L937.975 -61.0163C937.502 -61.5695 936.845 -61.8461 936.006 -61.8461C935.073 -61.8461 934.342 -61.4106 933.814 -60.5395C933.287 -59.6802 933.023 -58.356 933.023 -56.5668ZM936.006 -51.2875C936.954 -51.2875 937.691 -51.7172 938.219 -52.5765C938.746 -53.4475 939.01 -54.7776 939.01 -56.5668C939.01 -58.0853 938.841 -59.2624 938.503 -60.0981L933.997 -52.2057C934.484 -51.5936 935.154 -51.2875 936.006 -51.2875Z" fill="url(#paint47_linear_175_1867)"/>
<path d="M937.224 -31.2499H940.208V-30.3142H932.475V-31.2499H935.925V-41.1729L932.637 -39.4602L932.069 -40.2548L936.128 -42.4442H937.224V-31.2499Z" fill="url(#paint48_linear_175_1867)"/>
<path d="M936.006 -22.4419C937.454 -22.4419 938.55 -21.9063 939.294 -20.8351C940.052 -19.7758 940.431 -18.2338 940.431 -16.2091C940.431 -14.1845 940.052 -12.6366 939.294 -11.5655C938.55 -10.4943 937.454 -9.95875 936.006 -9.95875C934.572 -9.95875 933.476 -10.4943 932.718 -11.5655C931.96 -12.6366 931.582 -14.1845 931.582 -16.2091C931.582 -18.222 931.96 -19.764 932.718 -20.8351C933.476 -21.9063 934.572 -22.4419 936.006 -22.4419ZM933.023 -16.2091C933.023 -14.7731 933.172 -13.649 933.469 -12.8368L937.975 -20.6586C937.502 -21.2118 936.845 -21.4884 936.006 -21.4884C935.073 -21.4884 934.342 -21.0529 933.814 -20.1819C933.287 -19.3226 933.023 -17.9983 933.023 -16.2091ZM936.006 -10.9299C936.954 -10.9299 937.691 -11.3595 938.219 -12.2188C938.746 -13.0898 939.01 -14.42 939.01 -16.2091C939.01 -17.7276 938.841 -18.9047 938.503 -19.7404L933.997 -11.848C934.484 -11.2359 935.154 -10.9299 936.006 -10.9299Z" fill="url(#paint49_linear_175_1867)"/>
<path d="M937.224 9.10772H940.208V10.0435H932.475V9.10772H935.925V-0.815216L932.637 0.897466L932.069 0.102923L936.128 -2.08648H937.224V9.10772Z" fill="url(#paint50_linear_175_1867)"/>
<path d="M937.224 29.2866H940.208V30.2224H932.475V29.2866H935.925V19.3636L932.637 21.0763L932.069 20.2818L936.128 18.0924H937.224V29.2866Z" fill="url(#paint51_linear_175_1867)"/>
<path d="M936.006 38.0946C937.454 38.0946 938.55 38.6302 939.294 39.7014C940.052 40.7608 940.431 42.3028 940.431 44.3274C940.431 46.352 940.052 47.8999 939.294 48.971C938.55 50.0422 937.454 50.5778 936.006 50.5778C934.572 50.5778 933.476 50.0422 932.718 48.971C931.96 47.8999 931.582 46.352 931.582 44.3274C931.582 42.3145 931.96 40.7725 932.718 39.7014C933.476 38.6302 934.572 38.0946 936.006 38.0946ZM933.023 44.3274C933.023 45.7634 933.172 46.8876 933.469 47.6998L937.975 39.8779C937.502 39.3247 936.845 39.0481 936.006 39.0481C935.073 39.0481 934.342 39.4836 933.814 40.3547C933.287 41.2139 933.023 42.5382 933.023 44.3274ZM936.006 49.6067C936.954 49.6067 937.691 49.177 938.219 48.3177C938.746 47.4467 939.01 46.1166 939.01 44.3274C939.01 42.8089 938.841 41.6318 938.503 40.7961L933.997 48.6885C934.484 49.3006 935.154 49.6067 936.006 49.6067Z" fill="url(#paint52_linear_175_1867)"/>
<path d="M937.224 69.6442H940.208V70.58H932.475V69.6442H935.925V59.7213L932.637 61.434L932.069 60.6394L936.128 58.45H937.224V69.6442Z" fill="url(#paint53_linear_175_1867)"/>
<path d="M936.006 78.4523C937.454 78.4523 938.55 78.9879 939.294 80.0591C940.052 81.1184 940.431 82.6604 940.431 84.6851C940.431 86.7097 940.052 88.2575 939.294 89.3287C938.55 90.3999 937.454 90.9355 936.006 90.9355C934.572 90.9355 933.476 90.3999 932.718 89.3287C931.96 88.2575 931.582 86.7097 931.582 84.6851C931.582 82.6722 931.96 81.1302 932.718 80.0591C933.476 78.9879 934.572 78.4523 936.006 78.4523ZM933.023 84.6851C933.023 86.1211 933.172 87.2452 933.469 88.0574L937.975 80.2356C937.502 79.6824 936.845 79.4057 936.006 79.4057C935.073 79.4057 934.342 79.8413 933.814 80.7123C933.287 81.5716 933.023 82.8959 933.023 84.6851ZM936.006 89.9643C936.954 89.9643 937.691 89.5347 938.219 88.6754C938.746 87.8044 939.01 86.4742 939.01 84.6851C939.01 83.1666 938.841 81.9895 938.503 81.1538L933.997 89.0462C934.484 89.6583 935.154 89.9643 936.006 89.9643Z" fill="url(#paint54_linear_175_1867)"/>
<path d="M936.006 98.6311C937.454 98.6311 938.55 99.1667 939.294 100.238C940.052 101.297 940.431 102.839 940.431 104.864C940.431 106.889 940.052 108.436 939.294 109.508C938.55 110.579 937.454 111.114 936.006 111.114C934.572 111.114 933.476 110.579 932.718 109.508C931.96 108.436 931.582 106.889 931.582 104.864C931.582 102.851 931.96 101.309 932.718 100.238C933.476 99.1667 934.572 98.6311 936.006 98.6311ZM933.023 104.864C933.023 106.3 933.172 107.424 933.469 108.236L937.975 100.414C937.502 99.8612 936.845 99.5846 936.006 99.5846C935.073 99.5846 934.342 100.02 933.814 100.891C933.287 101.75 933.023 103.075 933.023 104.864ZM936.006 110.143C936.954 110.143 937.691 109.714 938.219 108.854C938.746 107.983 939.01 106.653 939.01 104.864C939.01 103.345 938.841 102.168 938.503 101.333L933.997 109.225C934.484 109.837 935.154 110.143 936.006 110.143Z" fill="url(#paint55_linear_175_1867)"/>
<path d="M937.224 130.181H940.208V131.117H932.475V130.181H935.925V120.258L932.637 121.97L932.069 121.176L936.128 118.987H937.224V130.181Z" fill="url(#paint56_linear_175_1867)"/>
<path d="M936.006 138.989C937.454 138.989 938.55 139.524 939.294 140.596C940.052 141.655 940.431 143.197 940.431 145.222C940.431 147.246 940.052 148.794 939.294 149.865C938.55 150.936 937.454 151.472 936.006 151.472C934.572 151.472 933.476 150.936 932.718 149.865C931.96 148.794 931.582 147.246 931.582 145.222C931.582 143.209 931.96 141.667 932.718 140.596C933.476 139.524 934.572 138.989 936.006 138.989ZM933.023 145.222C933.023 146.658 933.172 147.782 933.469 148.594L937.975 140.772C937.502 140.219 936.845 139.942 936.006 139.942C935.073 139.942 934.342 140.378 933.814 141.249C933.287 142.108 933.023 143.432 933.023 145.222ZM936.006 150.501C936.954 150.501 937.691 150.071 938.219 149.212C938.746 148.341 939.01 147.011 939.01 145.222C939.01 143.703 938.841 142.526 938.503 141.69L933.997 149.583C934.484 150.195 935.154 150.501 936.006 150.501Z" fill="url(#paint57_linear_175_1867)"/>
<path d="M937.224 170.538H940.208V171.474H932.475V170.538H935.925V160.615L932.637 162.328L932.069 161.534L936.128 159.344H937.224V170.538Z" fill="url(#paint58_linear_175_1867)"/>
<path d="M937.224 190.717H940.208V191.653H932.475V190.717H935.925V180.794L932.637 182.507L932.069 181.712L936.128 179.523H937.224V190.717Z" fill="url(#paint59_linear_175_1867)"/>
<path d="M973.701 -22.4419C975.148 -22.4419 976.244 -21.9063 976.989 -20.8351C977.746 -19.7758 978.125 -18.2338 978.125 -16.2091C978.125 -14.1845 977.746 -12.6366 976.989 -11.5655C976.244 -10.4943 975.148 -9.95875 973.701 -9.95875C972.266 -9.95875 971.17 -10.4943 970.412 -11.5655C969.655 -12.6366 969.276 -14.1845 969.276 -16.2091C969.276 -18.222 969.655 -19.764 970.412 -20.8351C971.17 -21.9063 972.266 -22.4419 973.701 -22.4419ZM970.717 -16.2091C970.717 -14.7731 970.866 -13.649 971.163 -12.8368L975.669 -20.6586C975.196 -21.2118 974.539 -21.4884 973.701 -21.4884C972.767 -21.4884 972.036 -21.0529 971.508 -20.1819C970.981 -19.3226 970.717 -17.9983 970.717 -16.2091ZM973.701 -10.9299C974.648 -10.9299 975.385 -11.3595 975.913 -12.2188C976.441 -13.0898 976.704 -14.42 976.704 -16.2091C976.704 -17.7276 976.535 -18.9047 976.197 -19.7404L971.691 -11.848C972.178 -11.2359 972.848 -10.9299 973.701 -10.9299Z" fill="url(#paint60_linear_175_1867)"/>
<path d="M974.918 9.10772H977.902V10.0435H970.169V9.10772H973.619V-0.815216L970.331 0.897466L969.763 0.102923L973.822 -2.08648H974.918V9.10772Z" fill="url(#paint61_linear_175_1867)"/>
<path d="M973.701 17.9158C975.148 17.9158 976.244 18.4514 976.989 19.5225C977.746 20.5819 978.125 22.1239 978.125 24.1485C978.125 26.1731 977.746 27.721 976.989 28.7922C976.244 29.8633 975.148 30.3989 973.701 30.3989C972.266 30.3989 971.17 29.8633 970.412 28.7922C969.655 27.721 969.276 26.1731 969.276 24.1485C969.276 22.1357 969.655 20.5937 970.412 19.5225C971.17 18.4514 972.266 17.9158 973.701 17.9158ZM970.717 24.1485C970.717 25.5846 970.866 26.7087 971.163 27.5209L975.669 19.6991C975.196 19.1459 974.539 18.8692 973.701 18.8692C972.767 18.8692 972.036 19.3048 971.508 20.1758C970.981 21.0351 970.717 22.3593 970.717 24.1485ZM973.701 29.4278C974.648 29.4278 975.385 28.9982 975.913 28.1389C976.441 27.2678 976.704 25.9377 976.704 24.1485C976.704 22.6301 976.535 21.453 976.197 20.6172L971.691 28.5097C972.178 29.1218 972.848 29.4278 973.701 29.4278Z" fill="url(#paint62_linear_175_1867)"/>
<path d="M973.701 38.0946C975.148 38.0946 976.244 38.6302 976.989 39.7014C977.746 40.7608 978.125 42.3028 978.125 44.3274C978.125 46.352 977.746 47.8999 976.989 48.971C976.244 50.0422 975.148 50.5778 973.701 50.5778C972.266 50.5778 971.17 50.0422 970.412 48.971C969.655 47.8999 969.276 46.352 969.276 44.3274C969.276 42.3145 969.655 40.7725 970.412 39.7014C971.17 38.6302 972.266 38.0946 973.701 38.0946ZM970.717 44.3274C970.717 45.7634 970.866 46.8876 971.163 47.6998L975.669 39.8779C975.196 39.3247 974.539 39.0481 973.701 39.0481C972.767 39.0481 972.036 39.4836 971.508 40.3547C970.981 41.2139 970.717 42.5382 970.717 44.3274ZM973.701 49.6067C974.648 49.6067 975.385 49.177 975.913 48.3177C976.441 47.4467 976.704 46.1166 976.704 44.3274C976.704 42.8089 976.535 41.6318 976.197 40.7961L971.691 48.6885C972.178 49.3006 972.848 49.6067 973.701 49.6067Z" fill="url(#paint63_linear_175_1867)"/>
<path d="M974.918 69.6442H977.902V70.58H970.169V69.6442H973.619V59.7213L970.331 61.434L969.763 60.6394L973.822 58.45H974.918V69.6442Z" fill="url(#paint64_linear_175_1867)"/>
<path d="M973.701 78.4523C975.148 78.4523 976.244 78.9879 976.989 80.0591C977.746 81.1184 978.125 82.6604 978.125 84.6851C978.125 86.7097 977.746 88.2575 976.989 89.3287C976.244 90.3999 975.148 90.9355 973.701 90.9355C972.266 90.9355 971.17 90.3999 970.412 89.3287C969.655 88.2575 969.276 86.7097 969.276 84.6851C969.276 82.6722 969.655 81.1302 970.412 80.0591C971.17 78.9879 972.266 78.4523 973.701 78.4523ZM970.717 84.6851C970.717 86.1211 970.866 87.2452 971.163 88.0574L975.669 80.2356C975.196 79.6824 974.539 79.4057 973.701 79.4057C972.767 79.4057 972.036 79.8413 971.508 80.7123C970.981 81.5716 970.717 82.8959 970.717 84.6851ZM973.701 89.9643C974.648 89.9643 975.385 89.5347 975.913 88.6754C976.441 87.8044 976.704 86.4742 976.704 84.6851C976.704 83.1666 976.535 81.9895 976.197 81.1538L971.691 89.0462C972.178 89.6583 972.848 89.9643 973.701 89.9643Z" fill="url(#paint65_linear_175_1867)"/>
<path d="M974.918 110.002H977.902V110.938H970.169V110.002H973.619V100.079L970.331 101.792L969.763 100.997L973.822 98.8077H974.918V110.002Z" fill="url(#paint66_linear_175_1867)"/>
<path d="M973.701 118.81C975.148 118.81 976.244 119.346 976.989 120.417C977.746 121.476 978.125 123.018 978.125 125.043C978.125 127.067 977.746 128.615 976.989 129.686C976.244 130.758 975.148 131.293 973.701 131.293C972.266 131.293 971.17 130.758 970.412 129.686C969.655 128.615 969.276 127.067 969.276 125.043C969.276 123.03 969.655 121.488 970.412 120.417C971.17 119.346 972.266 118.81 973.701 118.81ZM970.717 125.043C970.717 126.479 970.866 127.603 971.163 128.415L975.669 120.593C975.196 120.04 974.539 119.763 973.701 119.763C972.767 119.763 972.036 120.199 971.508 121.07C970.981 121.929 970.717 123.254 970.717 125.043ZM973.701 130.322C974.648 130.322 975.385 129.892 975.913 129.033C976.441 128.162 976.704 126.832 976.704 125.043C976.704 123.524 976.535 122.347 976.197 121.511L971.691 129.404C972.178 130.016 972.848 130.322 973.701 130.322Z" fill="url(#paint67_linear_175_1867)"/>
<path d="M973.701 138.989C975.148 138.989 976.244 139.524 976.989 140.596C977.746 141.655 978.125 143.197 978.125 145.222C978.125 147.246 977.746 148.794 976.989 149.865C976.244 150.936 975.148 151.472 973.701 151.472C972.266 151.472 971.17 150.936 970.412 149.865C969.655 148.794 969.276 147.246 969.276 145.222C969.276 143.209 969.655 141.667 970.412 140.596C971.17 139.524 972.266 138.989 973.701 138.989ZM970.717 145.222C970.717 146.658 970.866 147.782 971.163 148.594L975.669 140.772C975.196 140.219 974.539 139.942 973.701 139.942C972.767 139.942 972.036 140.378 971.508 141.249C970.981 142.108 970.717 143.432 970.717 145.222ZM973.701 150.501C974.648 150.501 975.385 150.071 975.913 149.212C976.441 148.341 976.704 147.011 976.704 145.222C976.704 143.703 976.535 142.526 976.197 141.69L971.691 149.583C972.178 150.195 972.848 150.501 973.701 150.501Z" fill="url(#paint68_linear_175_1867)"/>
<path d="M974.918 170.538H977.902V171.474H970.169V170.538H973.619V160.615L970.331 162.328L969.763 161.534L973.822 159.344H974.918V170.538Z" fill="url(#paint69_linear_175_1867)"/>
<path d="M973.701 179.346C975.148 179.346 976.244 179.882 976.989 180.953C977.746 182.013 978.125 183.555 978.125 185.579C978.125 187.604 977.746 189.152 976.989 190.223C976.244 191.294 975.148 191.83 973.701 191.83C972.266 191.83 971.17 191.294 970.412 190.223C969.655 189.152 969.276 187.604 969.276 185.579C969.276 183.566 969.655 182.024 970.412 180.953C971.17 179.882 972.266 179.346 973.701 179.346ZM970.717 185.579C970.717 187.015 970.866 188.139 971.163 188.952L975.669 181.13C975.196 180.577 974.539 180.3 973.701 180.3C972.767 180.3 972.036 180.735 971.508 181.607C970.981 182.466 970.717 183.79 970.717 185.579ZM973.701 190.859C974.648 190.859 975.385 190.429 975.913 189.57C976.441 188.699 976.704 187.368 976.704 185.579C976.704 184.061 976.535 182.884 976.197 182.048L971.691 189.94C972.178 190.552 972.848 190.859 973.701 190.859Z" fill="url(#paint70_linear_175_1867)"/>
<path d="M974.918 210.896H977.902V211.832H970.169V210.896H973.619V200.973L970.331 202.686L969.763 201.891L973.822 199.702H974.918V210.896Z" fill="url(#paint71_linear_175_1867)"/>
<path d="M974.918 231.075H977.902V232.011H970.169V231.075H973.619V221.152L970.331 222.865L969.763 222.07L973.822 219.881H974.918V231.075Z" fill="url(#paint72_linear_175_1867)"/>
<path d="M917.159 -2.26305C918.607 -2.26305 919.703 -1.72746 920.447 -0.656301C921.205 0.403088 921.584 1.94509 921.584 3.9697C921.584 5.99431 921.205 7.54219 920.447 8.61335C919.703 9.68451 918.607 10.2201 917.159 10.2201C915.725 10.2201 914.629 9.68451 913.871 8.61335C913.113 7.54219 912.734 5.99431 912.734 3.9697C912.734 1.95686 913.113 0.414859 913.871 -0.656301C914.629 -1.72746 915.725 -2.26305 917.159 -2.26305ZM914.176 3.9697C914.176 5.40576 914.324 6.52989 914.622 7.34208L919.128 -0.479737C918.654 -1.03297 917.998 -1.30959 917.159 -1.30959C916.226 -1.30959 915.495 -0.874069 914.967 -0.00301602C914.439 0.856266 914.176 2.18051 914.176 3.9697ZM917.159 9.24898C918.106 9.24898 918.844 8.81934 919.372 7.96005C919.899 7.089 920.163 5.75889 920.163 3.9697C920.163 2.45124 919.994 1.27413 919.656 0.438394L915.15 8.33085C915.637 8.94294 916.307 9.24898 917.159 9.24898Z" fill="url(#paint73_linear_175_1867)"/>
<path d="M917.159 17.9158C918.607 17.9158 919.703 18.4514 920.447 19.5225C921.205 20.5819 921.584 22.1239 921.584 24.1485C921.584 26.1731 921.205 27.721 920.447 28.7922C919.703 29.8633 918.607 30.3989 917.159 30.3989C915.725 30.3989 914.629 29.8633 913.871 28.7922C913.113 27.721 912.734 26.1731 912.734 24.1485C912.734 22.1357 913.113 20.5937 913.871 19.5225C914.629 18.4514 915.725 17.9158 917.159 17.9158ZM914.176 24.1485C914.176 25.5846 914.324 26.7087 914.622 27.5209L919.128 19.6991C918.654 19.1459 917.998 18.8692 917.159 18.8692C916.226 18.8692 915.495 19.3048 914.967 20.1758C914.439 21.0351 914.176 22.3593 914.176 24.1485ZM917.159 29.4278C918.106 29.4278 918.844 28.9982 919.372 28.1389C919.899 27.2678 920.163 25.9377 920.163 24.1485C920.163 22.6301 919.994 21.453 919.656 20.6172L915.15 28.5097C915.637 29.1218 916.307 29.4278 917.159 29.4278Z" fill="url(#paint74_linear_175_1867)"/>
<path d="M918.377 49.4654H921.361V50.4012H913.628V49.4654H917.078V39.5425L913.79 41.2551L913.222 40.4606L917.281 38.2712H918.377V49.4654Z" fill="url(#paint75_linear_175_1867)"/>
<path d="M917.159 58.2735C918.607 58.2735 919.703 58.8091 920.447 59.8802C921.205 60.9396 921.584 62.4816 921.584 64.5062C921.584 66.5308 921.205 68.0787 920.447 69.1499C919.703 70.221 918.607 70.7566 917.159 70.7566C915.725 70.7566 914.629 70.221 913.871 69.1499C913.113 68.0787 912.734 66.5308 912.734 64.5062C912.734 62.4934 913.113 60.9514 913.871 59.8802C914.629 58.8091 915.725 58.2735 917.159 58.2735ZM914.176 64.5062C914.176 65.9423 914.324 67.0664 914.622 67.8786L919.128 60.0568C918.654 59.5035 917.998 59.2269 917.159 59.2269C916.226 59.2269 915.495 59.6624 914.967 60.5335C914.439 61.3928 914.176 62.717 914.176 64.5062ZM917.159 69.7855C918.106 69.7855 918.844 69.3559 919.372 68.4966C919.899 67.6255 920.163 66.2954 920.163 64.5062C920.163 62.9878 919.994 61.8106 919.656 60.9749L915.15 68.8674C915.637 69.4795 916.307 69.7855 917.159 69.7855Z" fill="url(#paint76_linear_175_1867)"/>
<path d="M918.377 89.8231H921.361V90.7589H913.628V89.8231H917.078V79.9002L913.79 81.6128L913.222 80.8183L917.281 78.6289H918.377V89.8231Z" fill="url(#paint77_linear_175_1867)"/>
<path d="M918.377 110.002H921.361V110.938H913.628V110.002H917.078V100.079L913.79 101.792L913.222 100.997L917.281 98.8077H918.377V110.002Z" fill="url(#paint78_linear_175_1867)"/>
<path d="M956.071 -31.2499H959.055V-30.3142H951.322V-31.2499H954.772V-41.1729L951.484 -39.4602L950.916 -40.2548L954.975 -42.4442H956.071V-31.2499Z" fill="url(#paint79_linear_175_1867)"/>
<path d="M954.853 -22.4419C956.301 -22.4419 957.397 -21.9063 958.142 -20.8351C958.899 -19.7758 959.278 -18.2338 959.278 -16.2091C959.278 -14.1845 958.899 -12.6366 958.142 -11.5655C957.397 -10.4943 956.301 -9.95875 954.853 -9.95875C953.419 -9.95875 952.323 -10.4943 951.565 -11.5655C950.808 -12.6366 950.429 -14.1845 950.429 -16.2091C950.429 -18.222 950.808 -19.764 951.565 -20.8351C952.323 -21.9063 953.419 -22.4419 954.853 -22.4419ZM951.87 -16.2091C951.87 -14.7731 952.019 -13.649 952.316 -12.8368L956.822 -20.6586C956.349 -21.2118 955.692 -21.4884 954.853 -21.4884C953.92 -21.4884 953.189 -21.0529 952.661 -20.1819C952.134 -19.3226 951.87 -17.9983 951.87 -16.2091ZM954.853 -10.9299C955.801 -10.9299 956.538 -11.3595 957.066 -12.2188C957.594 -13.0898 957.857 -14.42 957.857 -16.2091C957.857 -17.7276 957.688 -18.9047 957.35 -19.7404L952.844 -11.848C953.331 -11.2359 954.001 -10.9299 954.853 -10.9299Z" fill="url(#paint80_linear_175_1867)"/>
<path d="M956.071 9.10772H959.055V10.0435H951.322V9.10772H954.772V-0.815216L951.484 0.897466L950.916 0.102923L954.975 -2.08648H956.071V9.10772Z" fill="url(#paint81_linear_175_1867)"/>
<path d="M956.071 29.2866H959.055V30.2224H951.322V29.2866H954.772V19.3636L951.484 21.0763L950.916 20.2818L954.975 18.0924H956.071V29.2866Z" fill="url(#paint82_linear_175_1867)"/>
<path d="M954.853 38.0946C956.301 38.0946 957.397 38.6302 958.142 39.7014C958.899 40.7608 959.278 42.3028 959.278 44.3274C959.278 46.352 958.899 47.8999 958.142 48.971C957.397 50.0422 956.301 50.5778 954.853 50.5778C953.419 50.5778 952.323 50.0422 951.565 48.971C950.808 47.8999 950.429 46.352 950.429 44.3274C950.429 42.3145 950.808 40.7725 951.565 39.7014C952.323 38.6302 953.419 38.0946 954.853 38.0946ZM951.87 44.3274C951.87 45.7634 952.019 46.8876 952.316 47.6998L956.822 39.8779C956.349 39.3247 955.692 39.0481 954.853 39.0481C953.92 39.0481 953.189 39.4836 952.661 40.3547C952.134 41.2139 951.87 42.5382 951.87 44.3274ZM954.853 49.6067C955.801 49.6067 956.538 49.177 957.066 48.3177C957.594 47.4467 957.857 46.1166 957.857 44.3274C957.857 42.8089 957.688 41.6318 957.35 40.7961L952.844 48.6885C953.331 49.3006 954.001 49.6067 954.853 49.6067Z" fill="url(#paint83_linear_175_1867)"/>
<path d="M956.071 69.6442H959.055V70.58H951.322V69.6442H954.772V59.7213L951.484 61.434L950.916 60.6394L954.975 58.45H956.071V69.6442Z" fill="url(#paint84_linear_175_1867)"/>
<path d="M956.071 89.8231H959.055V90.7589H951.322V89.8231H954.772V79.9002L951.484 81.6128L950.916 80.8183L954.975 78.6289H956.071V89.8231Z" fill="url(#paint85_linear_175_1867)"/>
<path d="M954.853 98.6311C956.301 98.6311 957.397 99.1667 958.142 100.238C958.899 101.297 959.278 102.839 959.278 104.864C959.278 106.889 958.899 108.436 958.142 109.508C957.397 110.579 956.301 111.114 954.853 111.114C953.419 111.114 952.323 110.579 951.565 109.508C950.808 108.436 950.429 106.889 950.429 104.864C950.429 102.851 950.808 101.309 951.565 100.238C952.323 99.1667 953.419 98.6311 954.853 98.6311ZM951.87 104.864C951.87 106.3 952.019 107.424 952.316 108.236L956.822 100.414C956.349 99.8612 955.692 99.5846 954.853 99.5846C953.92 99.5846 953.189 100.02 952.661 100.891C952.134 101.75 951.87 103.075 951.87 104.864ZM954.853 110.143C955.801 110.143 956.538 109.714 957.066 108.854C957.594 107.983 957.857 106.653 957.857 104.864C957.857 103.345 957.688 102.168 957.35 101.333L952.844 109.225C953.331 109.837 954.001 110.143 954.853 110.143Z" fill="url(#paint86_linear_175_1867)"/>
<path d="M956.071 130.181H959.055V131.117H951.322V130.181H954.772V120.258L951.484 121.97L950.916 121.176L954.975 118.987H956.071V130.181Z" fill="url(#paint87_linear_175_1867)"/>
<path d="M954.853 138.989C956.301 138.989 957.397 139.524 958.142 140.596C958.899 141.655 959.278 143.197 959.278 145.222C959.278 147.246 958.899 148.794 958.142 149.865C957.397 150.936 956.301 151.472 954.853 151.472C953.419 151.472 952.323 150.936 951.565 149.865C950.808 148.794 950.429 147.246 950.429 145.222C950.429 143.209 950.808 141.667 951.565 140.596C952.323 139.524 953.419 138.989 954.853 138.989ZM951.87 145.222C951.87 146.658 952.019 147.782 952.316 148.594L956.822 140.772C956.349 140.219 955.692 139.942 954.853 139.942C953.92 139.942 953.189 140.378 952.661 141.249C952.134 142.108 951.87 143.432 951.87 145.222ZM954.853 150.501C955.801 150.501 956.538 150.071 957.066 149.212C957.594 148.341 957.857 147.011 957.857 145.222C957.857 143.703 957.688 142.526 957.35 141.69L952.844 149.583C953.331 150.195 954.001 150.501 954.853 150.501Z" fill="url(#paint88_linear_175_1867)"/>
<path d="M992.548 -42.6207C993.996 -42.6207 995.092 -42.0851 995.836 -41.014C996.594 -39.9546 996.972 -38.4126 996.972 -36.388C996.972 -34.3634 996.594 -32.8155 995.836 -31.7443C995.092 -30.6732 993.996 -30.1376 992.548 -30.1376C991.113 -30.1376 990.017 -30.6732 989.26 -31.7443C988.502 -32.8155 988.123 -34.3634 988.123 -36.388C988.123 -38.4008 988.502 -39.9428 989.26 -41.014C990.017 -42.0851 991.113 -42.6207 992.548 -42.6207ZM989.564 -36.388C989.564 -34.9519 989.713 -33.8278 990.011 -33.0156L994.516 -40.8374C994.043 -41.3907 993.387 -41.6673 992.548 -41.6673C991.614 -41.6673 990.883 -41.2317 990.356 -40.3607C989.828 -39.5014 989.564 -38.1772 989.564 -36.388ZM992.548 -31.1087C993.495 -31.1087 994.232 -31.5383 994.76 -32.3976C995.288 -33.2687 995.552 -34.5988 995.552 -36.388C995.552 -37.9064 995.382 -39.0835 995.044 -39.9193L990.538 -32.0268C991.025 -31.4147 991.695 -31.1087 992.548 -31.1087Z" fill="url(#paint89_linear_175_1867)"/>
<path d="M993.765 -11.0711H996.749V-10.1353H989.016V-11.0711H992.466V-20.9941L989.178 -19.2814L988.61 -20.0759L992.669 -22.2653H993.765V-11.0711Z" fill="url(#paint90_linear_175_1867)"/>
<path d="M993.765 9.10772H996.749V10.0435H989.016V9.10772H992.466V-0.815216L989.178 0.897466L988.61 0.102923L992.669 -2.08648H993.765V9.10772Z" fill="url(#paint91_linear_175_1867)"/>
<path d="M992.548 17.9158C993.996 17.9158 995.092 18.4514 995.836 19.5225C996.594 20.5819 996.972 22.1239 996.972 24.1485C996.972 26.1731 996.594 27.721 995.836 28.7922C995.092 29.8633 993.996 30.3989 992.548 30.3989C991.113 30.3989 990.017 29.8633 989.26 28.7922C988.502 27.721 988.123 26.1731 988.123 24.1485C988.123 22.1357 988.502 20.5937 989.26 19.5225C990.017 18.4514 991.113 17.9158 992.548 17.9158ZM989.564 24.1485C989.564 25.5846 989.713 26.7087 990.011 27.5209L994.516 19.6991C994.043 19.1459 993.387 18.8692 992.548 18.8692C991.614 18.8692 990.883 19.3048 990.356 20.1758C989.828 21.0351 989.564 22.3593 989.564 24.1485ZM992.548 29.4278C993.495 29.4278 994.232 28.9982 994.76 28.1389C995.288 27.2678 995.552 25.9377 995.552 24.1485C995.552 22.6301 995.382 21.453 995.044 20.6172L990.538 28.5097C991.025 29.1218 991.695 29.4278 992.548 29.4278Z" fill="url(#paint92_linear_175_1867)"/>
<path d="M992.548 38.0946C993.996 38.0946 995.092 38.6302 995.836 39.7014C996.594 40.7608 996.972 42.3028 996.972 44.3274C996.972 46.352 996.594 47.8999 995.836 48.971C995.092 50.0422 993.996 50.5778 992.548 50.5778C991.113 50.5778 990.017 50.0422 989.26 48.971C988.502 47.8999 988.123 46.352 988.123 44.3274C988.123 42.3145 988.502 40.7725 989.26 39.7014C990.017 38.6302 991.113 38.0946 992.548 38.0946ZM989.564 44.3274C989.564 45.7634 989.713 46.8876 990.011 47.6998L994.516 39.8779C994.043 39.3247 993.387 39.0481 992.548 39.0481C991.614 39.0481 990.883 39.4836 990.356 40.3547C989.828 41.2139 989.564 42.5382 989.564 44.3274ZM992.548 49.6067C993.495 49.6067 994.232 49.177 994.76 48.3177C995.288 47.4467 995.552 46.1166 995.552 44.3274C995.552 42.8089 995.382 41.6318 995.044 40.7961L990.538 48.6885C991.025 49.3006 991.695 49.6067 992.548 49.6067Z" fill="url(#paint93_linear_175_1867)"/>
</g>
</g>
<defs>
<filter id="filter0_f_175_1867" x="-558.19" y="-716.19" width="2161.38" height="1420.1" filterUnits="userSpaceOnUse" color-interpolation-filters="sRGB">
<feFlood flood-opacity="0" result="BackgroundImageFix"/>
<feBlend mode="normal" in="SourceGraphic" in2="BackgroundImageFix" result="shape"/>
<feGaussianBlur stdDeviation="200.095" result="effect1_foregroundBlur_175_1867"/>
</filter>
<linearGradient id="paint0_linear_175_1867" x1="55.6395" y1="202.795" x2="55.6395" y2="478.466" gradientUnits="userSpaceOnUse">
<stop stop-color="#F7DD43"/>
<stop offset="1" stop-color="#F7DD43" stop-opacity="0"/>
</linearGradient>
<linearGradient id="paint1_linear_175_1867" x1="55.6395" y1="202.795" x2="55.6395" y2="478.466" gradientUnits="userSpaceOnUse">
<stop stop-color="#F7DD43"/>
<stop offset="1" stop-color="#F7DD43" stop-opacity="0"/>
</linearGradient>
<linearGradient id="paint2_linear_175_1867" x1="55.6395" y1="202.795" x2="55.6395" y2="478.466" gradientUnits="userSpaceOnUse">
<stop stop-color="#F7DD43"/>
<stop offset="1" stop-color="#F7DD43" stop-opacity="0"/>
</linearGradient>
<linearGradient id="paint3_linear_175_1867" x1="55.6395" y1="202.795" x2="55.6395" y2="478.466" gradientUnits="userSpaceOnUse">
<stop stop-color="#F7DD43"/>
<stop offset="1" stop-color="#F7DD43" stop-opacity="0"/>
</linearGradient>
<linearGradient id="paint4_linear_175_1867" x1="55.6395" y1="202.795" x2="55.6395" y2="478.466" gradientUnits="userSpaceOnUse">
<stop stop-color="#F7DD43"/>
<stop offset="1" stop-color="#F7DD43" stop-opacity="0"/>
</linearGradient>
<linearGradient id="paint5_linear_175_1867" x1="55.6395" y1="202.795" x2="55.6395" y2="478.466" gradientUnits="userSpaceOnUse">
<stop stop-color="#F7DD43"/>
<stop offset="1" stop-color="#F7DD43" stop-opacity="0"/>
</linearGradient>
<linearGradient id="paint6_linear_175_1867" x1="55.6395" y1="202.795" x2="55.6395" y2="478.466" gradientUnits="userSpaceOnUse">
<stop stop-color="#F7DD43"/>
<stop offset="1" stop-color="#F7DD43" stop-opacity="0"/>
</linearGradient>
<linearGradient id="paint7_linear_175_1867" x1="55.6395" y1="202.795" x2="55.6395" y2="478.466" gradientUnits="userSpaceOnUse">
<stop stop-color="#F7DD43"/>
<stop offset="1" stop-color="#F7DD43" stop-opacity="0"/>
</linearGradient>
<linearGradient id="paint8_linear_175_1867" x1="55.6395" y1="202.795" x2="55.6395" y2="478.466" gradientUnits="userSpaceOnUse">
<stop stop-color="#F7DD43"/>
<stop offset="1" stop-color="#F7DD43" stop-opacity="0"/>
</linearGradient>
<linearGradient id="paint9_linear_175_1867" x1="55.6395" y1="202.795" x2="55.6395" y2="478.466" gradientUnits="userSpaceOnUse">
<stop stop-color="#F7DD43"/>
<stop offset="1" stop-color="#F7DD43" stop-opacity="0"/>
</linearGradient>
<linearGradient id="paint10_linear_175_1867" x1="55.6395" y1="202.795" x2="55.6395" y2="478.466" gradientUnits="userSpaceOnUse">
<stop stop-color="#F7DD43"/>
<stop offset="1" stop-color="#F7DD43" stop-opacity="0"/>
</linearGradient>
<linearGradient id="paint11_linear_175_1867" x1="55.6395" y1="202.795" x2="55.6395" y2="478.466" gradientUnits="userSpaceOnUse">
<stop stop-color="#F7DD43"/>
<stop offset="1" stop-color="#F7DD43" stop-opacity="0"/>
</linearGradient>
<linearGradient id="paint12_linear_175_1867" x1="55.6395" y1="202.795" x2="55.6395" y2="478.466" gradientUnits="userSpaceOnUse">
<stop stop-color="#F7DD43"/>
<stop offset="1" stop-color="#F7DD43" stop-opacity="0"/>
</linearGradient>
<linearGradient id="paint13_linear_175_1867" x1="55.6395" y1="202.795" x2="55.6395" y2="478.466" gradientUnits="userSpaceOnUse">
<stop stop-color="#F7DD43"/>
<stop offset="1" stop-color="#F7DD43" stop-opacity="0"/>
</linearGradient>
<linearGradient id="paint14_linear_175_1867" x1="55.6395" y1="202.795" x2="55.6395" y2="478.466" gradientUnits="userSpaceOnUse">
<stop stop-color="#F7DD43"/>
<stop offset="1" stop-color="#F7DD43" stop-opacity="0"/>
</linearGradient>
<linearGradient id="paint15_linear_175_1867" x1="55.6395" y1="202.795" x2="55.6395" y2="478.466" gradientUnits="userSpaceOnUse">
<stop stop-color="#F7DD43"/>
<stop offset="1" stop-color="#F7DD43" stop-opacity="0"/>
</linearGradient>
<linearGradient id="paint16_linear_175_1867" x1="55.6395" y1="202.795" x2="55.6395" y2="478.466" gradientUnits="userSpaceOnUse">
<stop stop-color="#F7DD43"/>
<stop offset="1" stop-color="#F7DD43" stop-opacity="0"/>
</linearGradient>
<linearGradient id="paint17_linear_175_1867" x1="55.6395" y1="202.795" x2="55.6395" y2="478.466" gradientUnits="userSpaceOnUse">
<stop stop-color="#F7DD43"/>
<stop offset="1" stop-color="#F7DD43" stop-opacity="0"/>
</linearGradient>
<linearGradient id="paint18_linear_175_1867" x1="55.6395" y1="202.795" x2="55.6395" y2="478.466" gradientUnits="userSpaceOnUse">
<stop stop-color="#F7DD43"/>
<stop offset="1" stop-color="#F7DD43" stop-opacity="0"/>
</linearGradient>
<linearGradient id="paint19_linear_175_1867" x1="55.6395" y1="202.795" x2="55.6395" y2="478.466" gradientUnits="userSpaceOnUse">
<stop stop-color="#F7DD43"/>
<stop offset="1" stop-color="#F7DD43" stop-opacity="0"/>
</linearGradient>
<linearGradient id="paint20_linear_175_1867" x1="55.6395" y1="202.795" x2="55.6395" y2="478.466" gradientUnits="userSpaceOnUse">
<stop stop-color="#F7DD43"/>
<stop offset="1" stop-color="#F7DD43" stop-opacity="0"/>
</linearGradient>
<linearGradient id="paint21_linear_175_1867" x1="55.6395" y1="202.795" x2="55.6395" y2="478.466" gradientUnits="userSpaceOnUse">
<stop stop-color="#F7DD43"/>
<stop offset="1" stop-color="#F7DD43" stop-opacity="0"/>
</linearGradient>
<linearGradient id="paint22_linear_175_1867" x1="55.6395" y1="202.795" x2="55.6395" y2="478.466" gradientUnits="userSpaceOnUse">
<stop stop-color="#F7DD43"/>
<stop offset="1" stop-color="#F7DD43" stop-opacity="0"/>
</linearGradient>
<linearGradient id="paint23_linear_175_1867" x1="55.6395" y1="202.795" x2="55.6395" y2="478.466" gradientUnits="userSpaceOnUse">
<stop stop-color="#F7DD43"/>
<stop offset="1" stop-color="#F7DD43" stop-opacity="0"/>
</linearGradient>
<linearGradient id="paint24_linear_175_1867" x1="55.6395" y1="202.795" x2="55.6395" y2="478.466" gradientUnits="userSpaceOnUse">
<stop stop-color="#F7DD43"/>
<stop offset="1" stop-color="#F7DD43" stop-opacity="0"/>
</linearGradient>
<linearGradient id="paint25_linear_175_1867" x1="55.6395" y1="202.795" x2="55.6395" y2="478.466" gradientUnits="userSpaceOnUse">
<stop stop-color="#F7DD43"/>
<stop offset="1" stop-color="#F7DD43" stop-opacity="0"/>
</linearGradient>
<linearGradient id="paint26_linear_175_1867" x1="55.6395" y1="202.795" x2="55.6395" y2="478.466" gradientUnits="userSpaceOnUse">
<stop stop-color="#F7DD43"/>
<stop offset="1" stop-color="#F7DD43" stop-opacity="0"/>
</linearGradient>
<linearGradient id="paint27_linear_175_1867" x1="55.6395" y1="202.795" x2="55.6395" y2="478.466" gradientUnits="userSpaceOnUse">
<stop stop-color="#F7DD43"/>
<stop offset="1" stop-color="#F7DD43" stop-opacity="0"/>
</linearGradient>
<linearGradient id="paint28_linear_175_1867" x1="55.6395" y1="202.795" x2="55.6395" y2="478.466" gradientUnits="userSpaceOnUse">
<stop stop-color="#F7DD43"/>
<stop offset="1" stop-color="#F7DD43" stop-opacity="0"/>
</linearGradient>
<linearGradient id="paint29_linear_175_1867" x1="55.6395" y1="202.795" x2="55.6395" y2="478.466" gradientUnits="userSpaceOnUse">
<stop stop-color="#F7DD43"/>
<stop offset="1" stop-color="#F7DD43" stop-opacity="0"/>
</linearGradient>
<linearGradient id="paint30_linear_175_1867" x1="55.6395" y1="202.795" x2="55.6395" y2="478.466" gradientUnits="userSpaceOnUse">
<stop stop-color="#F7DD43"/>
<stop offset="1" stop-color="#F7DD43" stop-opacity="0"/>
</linearGradient>
<linearGradient id="paint31_linear_175_1867" x1="55.6395" y1="202.795" x2="55.6395" y2="478.466" gradientUnits="userSpaceOnUse">
<stop stop-color="#F7DD43"/>
<stop offset="1" stop-color="#F7DD43" stop-opacity="0"/>
</linearGradient>
<linearGradient id="paint32_linear_175_1867" x1="55.6395" y1="202.795" x2="55.6395" y2="478.466" gradientUnits="userSpaceOnUse">
<stop stop-color="#F7DD43"/>
<stop offset="1" stop-color="#F7DD43" stop-opacity="0"/>
</linearGradient>
<linearGradient id="paint33_linear_175_1867" x1="55.6395" y1="202.795" x2="55.6395" y2="478.466" gradientUnits="userSpaceOnUse">
<stop stop-color="#F7DD43"/>
<stop offset="1" stop-color="#F7DD43" stop-opacity="0"/>
</linearGradient>
<linearGradient id="paint34_linear_175_1867" x1="55.6395" y1="202.795" x2="55.6395" y2="478.466" gradientUnits="userSpaceOnUse">
<stop stop-color="#F7DD43"/>
<stop offset="1" stop-color="#F7DD43" stop-opacity="0"/>
</linearGradient>
<linearGradient id="paint35_linear_175_1867" x1="55.6395" y1="202.795" x2="55.6395" y2="478.466" gradientUnits="userSpaceOnUse">
<stop stop-color="#F7DD43"/>
<stop offset="1" stop-color="#F7DD43" stop-opacity="0"/>
</linearGradient>
<linearGradient id="paint36_linear_175_1867" x1="55.6395" y1="202.795" x2="55.6395" y2="478.466" gradientUnits="userSpaceOnUse">
<stop stop-color="#F7DD43"/>
<stop offset="1" stop-color="#F7DD43" stop-opacity="0"/>
</linearGradient>
<linearGradient id="paint37_linear_175_1867" x1="55.6395" y1="202.795" x2="55.6395" y2="478.466" gradientUnits="userSpaceOnUse">
<stop stop-color="#F7DD43"/>
<stop offset="1" stop-color="#F7DD43" stop-opacity="0"/>
</linearGradient>
<linearGradient id="paint38_linear_175_1867" x1="55.6395" y1="202.795" x2="55.6395" y2="478.466" gradientUnits="userSpaceOnUse">
<stop stop-color="#F7DD43"/>
<stop offset="1" stop-color="#F7DD43" stop-opacity="0"/>
</linearGradient>
<linearGradient id="paint39_linear_175_1867" x1="55.6395" y1="202.795" x2="55.6395" y2="478.466" gradientUnits="userSpaceOnUse">
<stop stop-color="#F7DD43"/>
<stop offset="1" stop-color="#F7DD43" stop-opacity="0"/>
</linearGradient>
<linearGradient id="paint40_linear_175_1867" x1="55.6395" y1="202.795" x2="55.6395" y2="478.466" gradientUnits="userSpaceOnUse">
<stop stop-color="#F7DD43"/>
<stop offset="1" stop-color="#F7DD43" stop-opacity="0"/>
</linearGradient>
<linearGradient id="paint41_linear_175_1867" x1="55.6395" y1="202.795" x2="55.6395" y2="478.466" gradientUnits="userSpaceOnUse">
<stop stop-color="#F7DD43"/>
<stop offset="1" stop-color="#F7DD43" stop-opacity="0"/>
</linearGradient>
<linearGradient id="paint42_linear_175_1867" x1="55.6395" y1="202.795" x2="55.6395" y2="478.466" gradientUnits="userSpaceOnUse">
<stop stop-color="#F7DD43"/>
<stop offset="1" stop-color="#F7DD43" stop-opacity="0"/>
</linearGradient>
<linearGradient id="paint43_linear_175_1867" x1="55.6395" y1="202.795" x2="55.6395" y2="478.466" gradientUnits="userSpaceOnUse">
<stop stop-color="#F7DD43"/>
<stop offset="1" stop-color="#F7DD43" stop-opacity="0"/>
</linearGradient>
<linearGradient id="paint44_linear_175_1867" x1="55.6395" y1="202.795" x2="55.6395" y2="478.466" gradientUnits="userSpaceOnUse">
<stop stop-color="#F7DD43"/>
<stop offset="1" stop-color="#F7DD43" stop-opacity="0"/>
</linearGradient>
<linearGradient id="paint45_linear_175_1867" x1="55.6395" y1="202.795" x2="55.6395" y2="478.466" gradientUnits="userSpaceOnUse">
<stop stop-color="#F7DD43"/>
<stop offset="1" stop-color="#F7DD43" stop-opacity="0"/>
</linearGradient>
<linearGradient id="paint46_linear_175_1867" x1="55.6395" y1="202.795" x2="55.6395" y2="478.466" gradientUnits="userSpaceOnUse">
<stop stop-color="#F7DD43"/>
<stop offset="1" stop-color="#F7DD43" stop-opacity="0"/>
</linearGradient>
<linearGradient id="paint47_linear_175_1867" x1="954.853" y1="-62.7996" x2="954.853" y2="201.749" gradientUnits="userSpaceOnUse">
<stop stop-color="#F7DD43"/>
<stop offset="1" stop-color="#F7DD43" stop-opacity="0"/>
</linearGradient>
<linearGradient id="paint48_linear_175_1867" x1="954.853" y1="-62.7996" x2="954.853" y2="201.749" gradientUnits="userSpaceOnUse">
<stop stop-color="#F7DD43"/>
<stop offset="1" stop-color="#F7DD43" stop-opacity="0"/>
</linearGradient>
<linearGradient id="paint49_linear_175_1867" x1="954.853" y1="-62.7996" x2="954.853" y2="201.749" gradientUnits="userSpaceOnUse">
<stop stop-color="#F7DD43"/>
<stop offset="1" stop-color="#F7DD43" stop-opacity="0"/>
</linearGradient>
<linearGradient id="paint50_linear_175_1867" x1="954.853" y1="-62.7996" x2="954.853" y2="201.749" gradientUnits="userSpaceOnUse">
<stop stop-color="#F7DD43"/>
<stop offset="1" stop-color="#F7DD43" stop-opacity="0"/>
</linearGradient>
<linearGradient id="paint51_linear_175_1867" x1="954.853" y1="-62.7996" x2="954.853" y2="201.749" gradientUnits="userSpaceOnUse">
<stop stop-color="#F7DD43"/>
<stop offset="1" stop-color="#F7DD43" stop-opacity="0"/>
</linearGradient>
<linearGradient id="paint52_linear_175_1867" x1="954.853" y1="-62.7996" x2="954.853" y2="201.749" gradientUnits="userSpaceOnUse">
<stop stop-color="#F7DD43"/>
<stop offset="1" stop-color="#F7DD43" stop-opacity="0"/>
</linearGradient>
<linearGradient id="paint53_linear_175_1867" x1="954.853" y1="-62.7996" x2="954.853" y2="201.749" gradientUnits="userSpaceOnUse">
<stop stop-color="#F7DD43"/>
<stop offset="1" stop-color="#F7DD43" stop-opacity="0"/>
</linearGradient>
<linearGradient id="paint54_linear_175_1867" x1="954.853" y1="-62.7996" x2="954.853" y2="201.749" gradientUnits="userSpaceOnUse">
<stop stop-color="#F7DD43"/>
<stop offset="1" stop-color="#F7DD43" stop-opacity="0"/>
</linearGradient>
<linearGradient id="paint55_linear_175_1867" x1="954.853" y1="-62.7996" x2="954.853" y2="201.749" gradientUnits="userSpaceOnUse">
<stop stop-color="#F7DD43"/>
<stop offset="1" stop-color="#F7DD43" stop-opacity="0"/>
</linearGradient>
<linearGradient id="paint56_linear_175_1867" x1="954.853" y1="-62.7996" x2="954.853" y2="201.749" gradientUnits="userSpaceOnUse">
<stop stop-color="#F7DD43"/>
<stop offset="1" stop-color="#F7DD43" stop-opacity="0"/>
</linearGradient>
<linearGradient id="paint57_linear_175_1867" x1="954.853" y1="-62.7996" x2="954.853" y2="201.749" gradientUnits="userSpaceOnUse">
<stop stop-color="#F7DD43"/>
<stop offset="1" stop-color="#F7DD43" stop-opacity="0"/>
</linearGradient>
<linearGradient id="paint58_linear_175_1867" x1="954.853" y1="-62.7996" x2="954.853" y2="201.749" gradientUnits="userSpaceOnUse">
<stop stop-color="#F7DD43"/>
<stop offset="1" stop-color="#F7DD43" stop-opacity="0"/>
</linearGradient>
<linearGradient id="paint59_linear_175_1867" x1="954.853" y1="-62.7996" x2="954.853" y2="201.749" gradientUnits="userSpaceOnUse">
<stop stop-color="#F7DD43"/>
<stop offset="1" stop-color="#F7DD43" stop-opacity="0"/>
</linearGradient>
<linearGradient id="paint60_linear_175_1867" x1="954.853" y1="-62.7996" x2="954.853" y2="201.749" gradientUnits="userSpaceOnUse">
<stop stop-color="#F7DD43"/>
<stop offset="1" stop-color="#F7DD43" stop-opacity="0"/>
</linearGradient>
<linearGradient id="paint61_linear_175_1867" x1="954.853" y1="-62.7996" x2="954.853" y2="201.749" gradientUnits="userSpaceOnUse">
<stop stop-color="#F7DD43"/>
<stop offset="1" stop-color="#F7DD43" stop-opacity="0"/>
</linearGradient>
<linearGradient id="paint62_linear_175_1867" x1="954.853" y1="-62.7996" x2="954.853" y2="201.749" gradientUnits="userSpaceOnUse">
<stop stop-color="#F7DD43"/>
<stop offset="1" stop-color="#F7DD43" stop-opacity="0"/>
</linearGradient>
<linearGradient id="paint63_linear_175_1867" x1="954.853" y1="-62.7996" x2="954.853" y2="201.749" gradientUnits="userSpaceOnUse">
<stop stop-color="#F7DD43"/>
<stop offset="1" stop-color="#F7DD43" stop-opacity="0"/>
</linearGradient>
<linearGradient id="paint64_linear_175_1867" x1="954.853" y1="-62.7996" x2="954.853" y2="201.749" gradientUnits="userSpaceOnUse">
<stop stop-color="#F7DD43"/>
<stop offset="1" stop-color="#F7DD43" stop-opacity="0"/>
</linearGradient>
<linearGradient id="paint65_linear_175_1867" x1="954.853" y1="-62.7996" x2="954.853" y2="201.749" gradientUnits="userSpaceOnUse">
<stop stop-color="#F7DD43"/>
<stop offset="1" stop-color="#F7DD43" stop-opacity="0"/>
</linearGradient>
<linearGradient id="paint66_linear_175_1867" x1="954.853" y1="-62.7996" x2="954.853" y2="201.749" gradientUnits="userSpaceOnUse">
<stop stop-color="#F7DD43"/>
<stop offset="1" stop-color="#F7DD43" stop-opacity="0"/>
</linearGradient>
<linearGradient id="paint67_linear_175_1867" x1="954.853" y1="-62.7996" x2="954.853" y2="201.749" gradientUnits="userSpaceOnUse">
<stop stop-color="#F7DD43"/>
<stop offset="1" stop-color="#F7DD43" stop-opacity="0"/>
</linearGradient>
<linearGradient id="paint68_linear_175_1867" x1="954.853" y1="-62.7996" x2="954.853" y2="201.749" gradientUnits="userSpaceOnUse">
<stop stop-color="#F7DD43"/>
<stop offset="1" stop-color="#F7DD43" stop-opacity="0"/>
</linearGradient>
<linearGradient id="paint69_linear_175_1867" x1="954.853" y1="-62.7996" x2="954.853" y2="201.749" gradientUnits="userSpaceOnUse">
<stop stop-color="#F7DD43"/>
<stop offset="1" stop-color="#F7DD43" stop-opacity="0"/>
</linearGradient>
<linearGradient id="paint70_linear_175_1867" x1="954.853" y1="-62.7996" x2="954.853" y2="201.749" gradientUnits="userSpaceOnUse">
<stop stop-color="#F7DD43"/>
<stop offset="1" stop-color="#F7DD43" stop-opacity="0"/>
</linearGradient>
<linearGradient id="paint71_linear_175_1867" x1="954.853" y1="-62.7996" x2="954.853" y2="201.749" gradientUnits="userSpaceOnUse">
<stop stop-color="#F7DD43"/>
<stop offset="1" stop-color="#F7DD43" stop-opacity="0"/>
</linearGradient>
<linearGradient id="paint72_linear_175_1867" x1="954.853" y1="-62.7996" x2="954.853" y2="201.749" gradientUnits="userSpaceOnUse">
<stop stop-color="#F7DD43"/>
<stop offset="1" stop-color="#F7DD43" stop-opacity="0"/>
</linearGradient>
<linearGradient id="paint73_linear_175_1867" x1="954.853" y1="-62.7996" x2="954.853" y2="201.749" gradientUnits="userSpaceOnUse">
<stop stop-color="#F7DD43"/>
<stop offset="1" stop-color="#F7DD43" stop-opacity="0"/>
</linearGradient>
<linearGradient id="paint74_linear_175_1867" x1="954.853" y1="-62.7996" x2="954.853" y2="201.749" gradientUnits="userSpaceOnUse">
<stop stop-color="#F7DD43"/>
<stop offset="1" stop-color="#F7DD43" stop-opacity="0"/>
</linearGradient>
<linearGradient id="paint75_linear_175_1867" x1="954.853" y1="-62.7996" x2="954.853" y2="201.749" gradientUnits="userSpaceOnUse">
<stop stop-color="#F7DD43"/>
<stop offset="1" stop-color="#F7DD43" stop-opacity="0"/>
</linearGradient>
<linearGradient id="paint76_linear_175_1867" x1="954.853" y1="-62.7996" x2="954.853" y2="201.749" gradientUnits="userSpaceOnUse">
<stop stop-color="#F7DD43"/>
<stop offset="1" stop-color="#F7DD43" stop-opacity="0"/>
</linearGradient>
<linearGradient id="paint77_linear_175_1867" x1="954.853" y1="-62.7996" x2="954.853" y2="201.749" gradientUnits="userSpaceOnUse">
<stop stop-color="#F7DD43"/>
<stop offset="1" stop-color="#F7DD43" stop-opacity="0"/>
</linearGradient>
<linearGradient id="paint78_linear_175_1867" x1="954.853" y1="-62.7996" x2="954.853" y2="201.749" gradientUnits="userSpaceOnUse">
<stop stop-color="#F7DD43"/>
<stop offset="1" stop-color="#F7DD43" stop-opacity="0"/>
</linearGradient>
<linearGradient id="paint79_linear_175_1867" x1="954.853" y1="-62.7996" x2="954.853" y2="201.749" gradientUnits="userSpaceOnUse">
<stop stop-color="#F7DD43"/>
<stop offset="1" stop-color="#F7DD43" stop-opacity="0"/>
</linearGradient>
<linearGradient id="paint80_linear_175_1867" x1="954.853" y1="-62.7996" x2="954.853" y2="201.749" gradientUnits="userSpaceOnUse">
<stop stop-color="#F7DD43"/>
<stop offset="1" stop-color="#F7DD43" stop-opacity="0"/>
</linearGradient>
<linearGradient id="paint81_linear_175_1867" x1="954.853" y1="-62.7996" x2="954.853" y2="201.749" gradientUnits="userSpaceOnUse">
<stop stop-color="#F7DD43"/>
<stop offset="1" stop-color="#F7DD43" stop-opacity="0"/>
</linearGradient>
<linearGradient id="paint82_linear_175_1867" x1="954.853" y1="-62.7996" x2="954.853" y2="201.749" gradientUnits="userSpaceOnUse">
<stop stop-color="#F7DD43"/>
<stop offset="1" stop-color="#F7DD43" stop-opacity="0"/>
</linearGradient>
<linearGradient id="paint83_linear_175_1867" x1="954.853" y1="-62.7996" x2="954.853" y2="201.749" gradientUnits="userSpaceOnUse">
<stop stop-color="#F7DD43"/>
<stop offset="1" stop-color="#F7DD43" stop-opacity="0"/>
</linearGradient>
<linearGradient id="paint84_linear_175_1867" x1="954.853" y1="-62.7996" x2="954.853" y2="201.749" gradientUnits="userSpaceOnUse">
<stop stop-color="#F7DD43"/>
<stop offset="1" stop-color="#F7DD43" stop-opacity="0"/>
</linearGradient>
<linearGradient id="paint85_linear_175_1867" x1="954.853" y1="-62.7996" x2="954.853" y2="201.749" gradientUnits="userSpaceOnUse">
<stop stop-color="#F7DD43"/>
<stop offset="1" stop-color="#F7DD43" stop-opacity="0"/>
</linearGradient>
<linearGradient id="paint86_linear_175_1867" x1="954.853" y1="-62.7996" x2="954.853" y2="201.749" gradientUnits="userSpaceOnUse">
<stop stop-color="#F7DD43"/>
<stop offset="1" stop-color="#F7DD43" stop-opacity="0"/>
</linearGradient>
<linearGradient id="paint87_linear_175_1867" x1="954.853" y1="-62.7996" x2="954.853" y2="201.749" gradientUnits="userSpaceOnUse">
<stop stop-color="#F7DD43"/>
<stop offset="1" stop-color="#F7DD43" stop-opacity="0"/>
</linearGradient>
<linearGradient id="paint88_linear_175_1867" x1="954.853" y1="-62.7996" x2="954.853" y2="201.749" gradientUnits="userSpaceOnUse">
<stop stop-color="#F7DD43"/>
<stop offset="1" stop-color="#F7DD43" stop-opacity="0"/>
</linearGradient>
<linearGradient id="paint89_linear_175_1867" x1="954.853" y1="-62.7996" x2="954.853" y2="201.749" gradientUnits="userSpaceOnUse">
<stop stop-color="#F7DD43"/>
<stop offset="1" stop-color="#F7DD43" stop-opacity="0"/>
</linearGradient>
<linearGradient id="paint90_linear_175_1867" x1="954.853" y1="-62.7996" x2="954.853" y2="201.749" gradientUnits="userSpaceOnUse">
<stop stop-color="#F7DD43"/>
<stop offset="1" stop-color="#F7DD43" stop-opacity="0"/>
</linearGradient>
<linearGradient id="paint91_linear_175_1867" x1="954.853" y1="-62.7996" x2="954.853" y2="201.749" gradientUnits="userSpaceOnUse">
<stop stop-color="#F7DD43"/>
<stop offset="1" stop-color="#F7DD43" stop-opacity="0"/>
</linearGradient>
<linearGradient id="paint92_linear_175_1867" x1="954.853" y1="-62.7996" x2="954.853" y2="201.749" gradientUnits="userSpaceOnUse">
<stop stop-color="#F7DD43"/>
<stop offset="1" stop-color="#F7DD43" stop-opacity="0"/>
</linearGradient>
<linearGradient id="paint93_linear_175_1867" x1="954.853" y1="-62.7996" x2="954.853" y2="201.749" gradientUnits="userSpaceOnUse">
<stop stop-color="#F7DD43"/>
<stop offset="1" stop-color="#F7DD43" stop-opacity="0"/>
</linearGradient>
<clipPath id="clip0_175_1867">
<rect width="1024" height="753" fill="white"/>
</clipPath>
</defs>
</svg>

